<mxfile host="65bd71144e">
    <diagram id="Tcp7HmCYpYwaCKgUbOCv" name="Page-1">
        <mxGraphModel dx="328" dy="745" grid="1" gridSize="10" guides="1" tooltips="1" connect="1" arrows="1" fold="1" page="1" pageScale="1" pageWidth="850" pageHeight="1100" math="0" shadow="0">
            <root>
                <mxCell id="0"/>
                <mxCell id="1" parent="0"/>
                <mxCell id="dEe_rALLzj7OPlot4LcM-10" value="" style="edgeStyle=none;html=1;" edge="1" parent="1" source="2" target="dEe_rALLzj7OPlot4LcM-8">
                    <mxGeometry relative="1" as="geometry"/>
                </mxCell>
                <mxCell id="dEe_rALLzj7OPlot4LcM-14" value="" style="edgeStyle=none;html=1;" edge="1" parent="1" source="2" target="dEe_rALLzj7OPlot4LcM-12">
                    <mxGeometry relative="1" as="geometry"/>
                </mxCell>
                <mxCell id="dEe_rALLzj7OPlot4LcM-15" value="" style="edgeStyle=none;html=1;" edge="1" parent="1" source="2" target="dEe_rALLzj7OPlot4LcM-13">
                    <mxGeometry relative="1" as="geometry"/>
                </mxCell>
                <mxCell id="2" value="Author" style="rounded=0;whiteSpace=wrap;html=1;" vertex="1" parent="1">
                    <mxGeometry x="20" y="170" width="60" height="40" as="geometry"/>
                </mxCell>
                <mxCell id="dEe_rALLzj7OPlot4LcM-11" value="" style="edgeStyle=none;html=1;" edge="1" parent="1" source="dEe_rALLzj7OPlot4LcM-8" target="dEe_rALLzj7OPlot4LcM-9">
                    <mxGeometry relative="1" as="geometry"/>
                </mxCell>
                <mxCell id="dEe_rALLzj7OPlot4LcM-8" value="Writes" style="rhombus;whiteSpace=wrap;html=1;strokeColor=default;strokeWidth=1;gradientColor=none;" vertex="1" parent="1">
                    <mxGeometry x="110" y="150" width="80" height="80" as="geometry"/>
                </mxCell>
                <mxCell id="dEe_rALLzj7OPlot4LcM-17" value="" style="edgeStyle=none;html=1;" edge="1" parent="1" source="dEe_rALLzj7OPlot4LcM-9" target="dEe_rALLzj7OPlot4LcM-16">
                    <mxGeometry relative="1" as="geometry"/>
                </mxCell>
                <mxCell id="dEe_rALLzj7OPlot4LcM-19" value="" style="edgeStyle=none;html=1;" edge="1" parent="1" source="dEe_rALLzj7OPlot4LcM-9" target="dEe_rALLzj7OPlot4LcM-18">
                    <mxGeometry relative="1" as="geometry"/>
                </mxCell>
                <mxCell id="dEe_rALLzj7OPlot4LcM-9" value="Books" style="rounded=0;whiteSpace=wrap;html=1;strokeColor=default;strokeWidth=1;gradientColor=none;" vertex="1" parent="1">
                    <mxGeometry x="230" y="170" width="70" height="40" as="geometry"/>
                </mxCell>
                <mxCell id="dEe_rALLzj7OPlot4LcM-12" value="Name" style="ellipse;whiteSpace=wrap;html=1;strokeColor=default;strokeWidth=1;gradientColor=none;" vertex="1" parent="1">
                    <mxGeometry x="20" y="90" width="60" height="40" as="geometry"/>
                </mxCell>
                <mxCell id="dEe_rALLzj7OPlot4LcM-13" value="Catalog" style="ellipse;whiteSpace=wrap;html=1;strokeColor=default;strokeWidth=1;gradientColor=none;" vertex="1" parent="1">
                    <mxGeometry x="20" y="230" width="60" height="40" as="geometry"/>
                </mxCell>
                <mxCell id="dEe_rALLzj7OPlot4LcM-16" value="Title" style="ellipse;whiteSpace=wrap;html=1;rounded=0;strokeWidth=1;gradientColor=none;" vertex="1" parent="1">
                    <mxGeometry x="250" y="70" width="75" height="30" as="geometry"/>
                </mxCell>
                <mxCell id="dEe_rALLzj7OPlot4LcM-18" value="" style="ellipse;whiteSpace=wrap;html=1;rounded=0;strokeWidth=1;gradientColor=none;" vertex="1" parent="1">
                    <mxGeometry x="205" y="280" width="120" height="60" as="geometry"/>
                </mxCell>
            </root>
        </mxGraphModel>
    </diagram>
    <diagram id="kgD0H_Jqg1HdMyKQ9Erh" name="Page-2">
        <mxGraphModel dx="416" dy="745" grid="1" gridSize="10" guides="1" tooltips="1" connect="1" arrows="1" fold="1" page="1" pageScale="1" pageWidth="850" pageHeight="1100" math="0" shadow="0">
            <root>
                <mxCell id="4olaY8ZgYgUVkgN_W5tX-0"/>
                <mxCell id="4olaY8ZgYgUVkgN_W5tX-1" parent="4olaY8ZgYgUVkgN_W5tX-0"/>
            </root>
        </mxGraphModel>
    </diagram>
</mxfile>